<svg version="1.1" xmlns="http://www.w3.org/2000/svg" x="0" y="0" width="940" height="250" viewBox="0 0 940 250" xml:space="preserve"><path opacity=".17" fill="#207799" d="M648.008 187.893c-5.373-8.875-33.749-31.339-49.029-31.617-7.23-.131-16.791 9.799-18.806 16.086-2.015 6.286-8.731 22.557-14.104 25.145-2.739 1.32-8.447 6.581-14.541 12.058-1.504-.588-3.394-1.058-5.776-1.334a188.936 188.936 0 0 1-3.436-.432c-6.497-3.486-14.162-7.049-18.522-6.195-7.027 1.377-35.136-19.739-40.579-20.603-5.444-.864-16.418-5.562-19.542-5.103-3.123.459-20.301 9.64-24.985 12.853-4.685 3.213-26.547 7.804-41.382 9.64-2.769.343-4.966.926-6.714 1.656-7.084-6.799-13.72-13.33-16.904-14.968-6.246-3.213-14.054-23.411-16.397-31.215s-13.457-20.131-21.862-19.968c-17.763.344-50.751 28.231-56.998 39.248-5.615 9.903-50.338 59.299-78.608 75.857h515.803c-24.317-13.34-62.788-53.131-67.618-61.108z"/></svg>