<svg version="1.1" xmlns="http://www.w3.org/2000/svg" x="0" y="0" width="940" height="250" viewBox="0 0 940 250" xml:space="preserve"><path fill="#24ADCF" d="M711.954 250c-2.225-8.865-10.234-15.436-19.789-15.436-5.776 0-10.988 2.403-14.702 6.259-2.259-8.816-10.257-15.332-19.777-15.332a20.34 20.34 0 0 0-7.244 1.328c-2.936-7.672-10.364-13.123-19.068-13.123-7.529 0-14.102 4.079-17.641 10.145a14.446 14.446 0 0 0-9.428-3.491c-1.548 0-3.037.247-4.437.696.328-1.542.505-3.14.505-4.779 0-12.611-10.223-22.834-22.834-22.834-11.677 0-21.301 8.767-22.663 20.077-5.589 1.43-23.554 6.074-24.065 6.84-.23.345-.897 4.928-1.635 10.477-4.488-3.312-10.454-5.336-17.008-5.336-3.156 0-6.174.472-8.958 1.328-3.631-7.672-12.817-13.123-23.582-13.123-9.311 0-17.439 4.079-21.816 10.145-3.138-2.172-7.205-3.491-11.659-3.491-1.915 0-3.756.247-5.487.696.406-1.542.624-3.14.624-4.779 0-12.611-12.643-22.834-28.239-22.834-14.441 0-26.342 8.767-28.027 20.077-2.723.563-7.822 1.626-13.04 2.753.715-.881 1.192-1.573 1.192-1.857 0-1.206-1.206-8.444-1.206-8.444l-8.257-4.246c-2.142-9.541-10.658-16.671-20.845-16.671-11.802 0-21.37 9.568-21.37 21.37 0 .475.021.944.051 1.411a18.913 18.913 0 0 0-9.677 5.529l-1.229.568c-3.406-5.049-9.178-8.37-15.727-8.37-10.47 0-18.957 8.487-18.957 18.957 0 1.303.132 2.575.383 3.804a19.151 19.151 0 0 0-2.234-.143c-7.394 0-13.783 4.243-16.909 10.418l-.027.013c-3.238-3.443-7.822-5.605-12.921-5.605-9.552 0-17.319 7.55-17.713 17.005h485.416z"/></svg>