<svg version="1.1" xmlns="http://www.w3.org/2000/svg" x="0" y="0" width="940" height="250" viewBox="0 0 940 250" xml:space="preserve"><path fill="#FFF" d="M476.028 98.683h-15.355l3.872-50.987h8.579zM416.006 80.57H400.65l3.872-44.411h8.579zM537.459 65.08h-15.356l3.873-44.41h8.579z"/><path fill="#FFF" d="M434.133 86.811h-51.649l-2.904-5.52 2.904-5.52h51.649l2.905 5.52zM546.394 210.66c0-1.868.964-3.509 2.42-4.459v-8.507a5.316 5.316 0 0 1 0-8.918V65.543h-37.26v130.703a5.321 5.321 0 0 1 2.893 4.733 5.32 5.32 0 0 1-2.893 4.733v42.892h37.26V215.12a5.317 5.317 0 0 1-2.42-4.46zM421.773 37.37h-25.897V25.994l12.949-3.872 12.948 3.872z"/><linearGradient id="a" gradientUnits="userSpaceOnUse" x1="403.496" y1="50.563" x2="414.906" y2="50.563"><stop offset="0" stop-color="#00cdf3"/><stop offset="1" stop-color="#2b95f3"/></linearGradient><path opacity=".19" fill="url(#a)" d="M403.496 47.935l11.41 15.821-1.725-26.386h-8.764z"/><path fill="#FFF" d="M481.531 169.032a5.323 5.323 0 0 1 2.818-4.697v-61.03h-31.591v145.3h31.591V173.73a5.325 5.325 0 0 1-2.818-4.698z"/><linearGradient id="b" gradientUnits="userSpaceOnUse" x1="463.01" y1="69.995" x2="475.242" y2="69.995"><stop offset="0" stop-color="#00cdf3"/><stop offset="1" stop-color="#2b95f3"/></linearGradient><path opacity=".19" fill="url(#b)" d="M464.006 54.957l-.996 13.116 12.232 16.961-1.714-30.077z"/><linearGradient id="c" gradientUnits="userSpaceOnUse" x1="524.868" y1="35.04" x2="536.434" y2="35.04"><stop offset="0" stop-color="#00cdf3"/><stop offset="1" stop-color="#2b95f3"/></linearGradient><path opacity=".19" fill="url(#c)" d="M536.434 49.41l-1.879-28.74h-8.579l-1.108 12.702z"/><linearGradient id="d" gradientUnits="userSpaceOnUse" x1="452.759" y1="130.607" x2="484.349" y2="130.607"><stop offset="0" stop-color="#00cdf3"/><stop offset="1" stop-color="#2b95f3"/></linearGradient><path opacity=".19" fill="url(#d)" d="M484.349 157.91v-54.605h-31.59v10.802z"/><path fill="#FFF" d="M423.571 174.032V86.811H391.98v39.337a9.345 9.345 0 0 1 4.057 7.708c0 3.2-1.608 6.021-4.057 7.709v107.038h31.591v-64.222a6.18 6.18 0 0 1 0-10.349z"/><linearGradient id="e" gradientUnits="userSpaceOnUse" x1="511.554" y1="157.074" x2="548.814" y2="157.074"><stop offset="0" stop-color="#00cdf3"/><stop offset="1" stop-color="#2b95f3"/></linearGradient><path opacity=".19" fill="url(#e)" d="M535.586 248.604V111.812l13.228 18.716V65.543h-37.26v13.32l12.422 17.599v152.142"/><linearGradient id="f" gradientUnits="userSpaceOnUse" x1="391.981" y1="167.708" x2="423.571" y2="167.708"><stop offset="0" stop-color="#00cdf3"/><stop offset="1" stop-color="#2b95f3"/></linearGradient><path opacity=".19" fill="url(#f)" d="M407.776 86.811h-15.795v.803l15.795 21.902v139.088h15.795v-64.222a6.18 6.18 0 0 1 0-10.35V86.811h-15.795z"/><g><path fill="#FFF" d="M444.691 111.778l-4.86-7.232c8.285-5.566 19.302-8.888 29.474-8.888 10.028 0 21.287 3.202 29.384 8.359l-4.68 7.349c-6.673-4.249-16.37-6.995-24.704-6.995-8.508-.001-17.71 2.769-24.614 7.407z"/></g><g><path fill="#FFF" d="M469.235 56.634c-5.373 0-11.415-1.722-15.768-4.494l4.68-7.349c2.447 1.557 6.824 3.13 11.088 3.13 4.482 0 8.62-1.708 10.997-3.305l4.86 7.232c-4.461 2.996-10.388 4.786-15.857 4.786z"/></g><path fill="#FFF" d="M520.953 19.562c4.409-.118 8.817-.278 13.227-.321 1.413-.014 3.035-.227 4.558-.119l2.07-7.079a3.886 3.886 0 0 0-2.632-4.807 3.89 3.89 0 0 0-4.52 1.924v-.024c0-2.131-1.744-3.875-3.875-3.875s-3.875 1.744-3.875 3.875v.025c-.839-1.599-2.724-2.45-4.52-1.924a3.886 3.886 0 0 0-2.632 4.807l2.199 7.518zM557.457 55.478l-1.246-.374v2.903c-.282.861-1.074 1.431-2.007 1.431-1.762 0-3.692-.508-6.134-1.15-3.864-1.016-9.1-2.393-16.907-2.502v-.121h-.968c-8.358 0-13.871 1.449-17.897 2.508-2.442.642-4.372 1.15-6.135 1.15-.933 0-1.725-.57-2.007-1.43v-3.019l-1.247.374c-3.632 1.093-6.17 4.506-6.17 8.301 0 3.796 2.538 7.21 6.17 8.301l1.247.374v-2.903c.282-.861 1.074-1.431 2.007-1.431 1.763 0 3.692.508 6.135 1.15 3.864 1.016 9.1 2.393 16.906 2.502v.121h.968c8.359 0 13.872-1.449 17.898-2.508 2.442-.642 4.372-1.15 6.134-1.15.933 0 1.725.57 2.007 1.43v3.019l1.247-.374c3.633-1.092 6.171-4.506 6.171-8.301 0-3.796-2.538-7.21-6.172-8.301z"/><path fill="#FFF" d="M547.17 14.68l-1.246-.374v2.229a.912.912 0 0 1-.874.58c-1.043 0-2.217-.309-3.703-.7-2.349-.617-5.513-1.449-10.188-1.553v-.081h-.968c-5.221 0-8.66.905-11.17 1.565-1.486.39-2.66.7-3.703.7a.91.91 0 0 1-.874-.58v-2.302l-1.247.374a5.77 5.77 0 0 0-4.081 5.491 5.767 5.767 0 0 0 4.082 5.491l1.246.373v-2.229a.912.912 0 0 1 .874-.58c1.043 0 2.217.309 3.703.7 2.349.617 5.513 1.449 10.188 1.554v.08h.968c5.221 0 8.66-.905 11.17-1.565 1.486-.39 2.66-.7 3.703-.7.402 0 .735.224.874.58v2.301l1.247-.374a5.771 5.771 0 0 0 4.081-5.491 5.768 5.768 0 0 0-4.082-5.489z"/></svg>