<svg version="1.1" xmlns="http://www.w3.org/2000/svg" x="0" y="0" width="940" height="250" viewBox="0 0 940 250" xml:space="preserve"><g><linearGradient id="a" gradientUnits="userSpaceOnUse" x1="469.26" y1="248.605" x2="469.26" y2="44.616"><stop offset="0" stop-color="#2bb0f3" stop-opacity=".4"/><stop offset=".454" stop-color="#48acde" stop-opacity="0"/></linearGradient><path fill="url(#a)" d="M473.612 56.265c4.109-.664 8.193-2.21 11.479-4.418l-4.86-7.232c-1.875 1.26-4.851 2.575-8.222 3.08h-5.605c-3.279-.482-6.354-1.693-8.259-2.905l-4.68 7.349c2.949 1.878 6.674 3.256 10.44 3.961l-3.06 40.287c-7.532 1.261-14.995 4.113-21.015 8.157l4.86 7.232c2.444-1.642 5.18-3.044 8.067-4.178V248.602h31.591v-74.875a5.322 5.322 0 0 1 0-9.394v-57.422c3.535 1.161 6.864 2.672 9.66 4.453l4.68-7.349c-6.361-4.051-14.674-6.888-22.808-7.921l-2.268-39.829z"/><linearGradient id="b" gradientUnits="userSpaceOnUse" x1="408.309" y1="248.605" x2="408.309" y2="22.122"><stop offset="0" stop-color="#2bb0f3" stop-opacity=".4"/><stop offset=".454" stop-color="#48acde" stop-opacity="0"/></linearGradient><path fill="url(#b)" d="M415.692 75.771l-.786-12.015-1.342-20.517-.384-5.869h8.592V25.994l-12.948-3.872-12.948 3.872V37.37h8.541l-.467 5.358-2.881 33.043h-18.584l-2.904 5.52 2.904 5.52h9.497V126.148c2.449 1.688 4.057 4.509 4.057 7.709s-1.608 6.021-4.057 7.709v107.039h31.591v-64.222a6.18 6.18 0 0 1 0-10.35V86.812h10.562l2.904-5.52-2.904-5.52h-18.443z"/><linearGradient id="c" gradientUnits="userSpaceOnUse" x1="530.184" y1="248.605" x2="530.184" y2="5.261"><stop offset="0" stop-color="#2bb0f3" stop-opacity=".4"/><stop offset=".454" stop-color="#48acde" stop-opacity="0"/></linearGradient><path fill="url(#c)" d="M557.457 55.478l-1.246-.374v2.903c-.282.861-1.074 1.431-2.007 1.431-1.762 0-3.692-.508-6.134-1.15-2.835-.746-6.413-1.683-11.198-2.174l-2.025-30.964c2.738-.317 4.832-.859 6.5-1.297 1.486-.39 2.66-.699 3.703-.699.402 0 .735.224.874.58v2.301l1.247-.374a5.771 5.771 0 0 0 4.081-5.491c0-2.511-1.678-4.77-4.082-5.491l-1.246-.374v2.229a.912.912 0 0 1-.874.58c-1.043 0-2.217-.309-3.703-.7-.519-.136-1.086-.283-1.692-.431l1.152-3.941a3.886 3.886 0 0 0-2.632-4.807 3.89 3.89 0 0 0-4.52 1.924v-.023c0-2.131-1.744-3.875-3.875-3.875s-3.875 1.744-3.875 3.875v.025a3.889 3.889 0 0 0-4.519-1.924 3.886 3.886 0 0 0-2.632 4.807l1.188 4.062c-.319.082-.628.162-.921.24-1.486.39-2.66.699-3.703.699a.912.912 0 0 1-.874-.579v-2.302l-1.247.374a5.77 5.77 0 0 0-4.081 5.491 5.767 5.767 0 0 0 4.082 5.491l1.246.374v-2.229a.91.91 0 0 1 .874-.58c1.043 0 2.217.309 3.703.7 1.682.442 3.795.99 6.569 1.307l-2.701 30.975c-4.482.505-7.877 1.394-10.591 2.109-2.442.642-4.372 1.149-6.135 1.149-.933 0-1.726-.57-2.007-1.43v-3.019l-1.247.374c-3.632 1.093-6.17 4.506-6.17 8.301 0 3.796 2.538 7.21 6.17 8.301l1.247.374v-2.903c.282-.861 1.074-1.432 2.007-1.432 1.575 0 3.303.413 5.39.957v127.399a5.321 5.321 0 0 1 2.893 4.733 5.32 5.32 0 0 1-2.893 4.733v42.892h37.26V215.12a5.316 5.316 0 0 1 0-8.918v-8.507a5.316 5.316 0 0 1 0-8.918V68.962c2.087-.544 3.816-.957 5.39-.957.933 0 1.725.57 2.007 1.431v3.019l1.247-.374c3.633-1.092 6.171-4.506 6.171-8.301.001-3.797-2.537-7.211-6.171-8.302z"/></g></svg>